<svg xmlns="http://www.w3.org/2000/svg" width="30.634" height="26" viewBox="0 0 30.634 26">
  <g id="Group_155" data-name="Group 155" transform="translate(-1227.366 -68)">
    <path id="shopping-bag_1_" data-name="shopping-bag (1)" d="M19.037,21.277,17.365,5.354a.655.655,0,0,0-.651-.586H13.571V4.051a4.051,4.051,0,0,0-8.1,0v.717H2.326a.655.655,0,0,0-.651.586L0,21.277A.655.655,0,0,0,.654,22H18.386a.655.655,0,0,0,.651-.723ZM6.779,4.051a2.741,2.741,0,0,1,5.483,0v.717H6.779Zm-5.4,16.64L2.916,6.077H5.469V7.52a.655.655,0,0,0,1.31,0V6.077h5.483V7.52a.655.655,0,0,0,1.31,0V6.077h2.553l1.535,14.614Zm0,0" transform="translate(1227.366 72)" fill="#484848"/>
    <circle id="Ellipse_4" data-name="Ellipse 4" cx="8.5" cy="8.5" r="8.5" transform="translate(1241 68)" fill="#ff2a6a"/>
    <text id="_1" data-name="1" transform="translate(1251 80)" fill="#fff" font-size="9" font-family="Poppins-Medium, Poppins" font-weight="500"><tspan x="-3.15" y="0">1</tspan></text>
  </g>
</svg>
