<svg xmlns="http://www.w3.org/2000/svg" width="46.18" height="52.018" viewBox="0 0 46.18 52.018">
  <g id="contract" transform="translate(-28.73)" opacity="0.5">
    <g id="Group_12542" data-name="Group 12542" transform="translate(28.73 0)">
      <path id="Path_40892" data-name="Path 40892" d="M107.909,137.8H83a.765.765,0,0,0,0,1.53h24.911a.765.765,0,1,0,0-1.53Z" transform="translate(-76.797 -123.804)"/>
      <path id="Path_40893" data-name="Path 40893" d="M83,87.087H95.453a.765.765,0,0,0,0-1.53H83a.765.765,0,1,0,0,1.53Z" transform="translate(-76.797 -76.865)"/>
      <path id="Path_40894" data-name="Path 40894" d="M107.909,184.1H83a.765.765,0,0,0,0,1.53h24.911a.765.765,0,1,0,0-1.53Z" transform="translate(-76.797 -165.392)"/>
      <path id="Path_40895" data-name="Path 40895" d="M40.605,46.7H32.633a2.376,2.376,0,0,1-2.373-2.373V3.9A2.376,2.376,0,0,1,32.633,1.53H55.6a1.637,1.637,0,0,1,.219.017V6.319a3.908,3.908,0,0,0,3.9,3.9H64.5a1.624,1.624,0,0,1,.017.22V23.473a.765.765,0,0,0,1.53,0V10.442a3.122,3.122,0,0,0-.92-2.222l-7.3-7.3A3.122,3.122,0,0,0,55.6,0H32.633a3.908,3.908,0,0,0-3.9,3.9V44.328a3.908,3.908,0,0,0,3.9,3.9h7.972a.765.765,0,1,0,0-1.53ZM63.43,8.692H59.723A2.376,2.376,0,0,1,57.35,6.319V2.613Z" transform="translate(-28.73 0)"/>
      <path id="Path_40896" data-name="Path 40896" d="M127.291,264.67l-6.484-10.944a1.677,1.677,0,0,0-2.3-.589l-1.577.934a3,3,0,0,0-1.321,3.493,2.346,2.346,0,0,1-1.65-.018c-1.245-.392-2.192-1.18-3.755-.784-2.655.676-2.574.642-2.814.724-1.554-.885-2.489-1.148-4.139-.51l-1.471.569a2.353,2.353,0,0,1-2.061-.172l-.4-.237a2.989,2.989,0,0,0-1.427-3.065h0l-1.577-.934a1.68,1.68,0,0,0-2.3.589L87.531,264.67a1.677,1.677,0,0,0,.589,2.3l1.577.934a2.973,2.973,0,0,0,1.52.417,3.012,3.012,0,0,0,1.634-.483l.329.194-.694.966a2.564,2.564,0,0,0,2.482,4.029,2.562,2.562,0,0,0,2.926,2.1,2.564,2.564,0,0,0,3.54,1.925,2.563,2.563,0,0,0,4.359.721l1.844,1.092a2.569,2.569,0,0,0,3.858-1.9l0,0a2.566,2.566,0,0,0,3.867-2.018,2.566,2.566,0,0,0,3.179-2.219,2.567,2.567,0,0,0,2.9-4.042l1.016-.594a2.985,2.985,0,0,0,2.663-.191l1.577-.934a1.677,1.677,0,0,0,.589-2.3Zm-36.814,1.917-1.577-.934a.148.148,0,0,1-.052-.2l6.484-10.944a.148.148,0,0,1,.2-.052l1.577.934a1.461,1.461,0,0,1,.512,2l-5.145,8.685A1.463,1.463,0,0,1,90.476,266.587Zm3.489,4.749a1.035,1.035,0,0,1-.237-1.445l1.02-1.421a1.035,1.035,0,0,1,1.682,1.208l-1.02,1.421A1.037,1.037,0,0,1,93.965,271.335Zm2.925,2.1a1.037,1.037,0,0,1-.237-1.445l1.02-1.421h0L98.8,269a1.028,1.028,0,0,1,.673-.418,1.045,1.045,0,0,1,.17-.014,1.036,1.036,0,0,1,.839,1.639L98.336,273.2A1.035,1.035,0,0,1,96.891,273.436Zm2.925,2.1a1.037,1.037,0,0,1-.238-1.444h0l2.146-2.989a1.035,1.035,0,1,1,1.682,1.208l-.953,1.328h0l-1.192,1.661A1.036,1.036,0,0,1,99.816,275.536Zm3.4,1.433a1.037,1.037,0,0,1-.238-1.444l.714-.995a1.035,1.035,0,0,1,1.682,1.208l-.714.994A1.036,1.036,0,0,1,103.221,276.969Zm17.151-6.1a1.037,1.037,0,0,1-1.419.363l-6.773-4.013a.765.765,0,1,0-.78,1.317l5.121,3.034h0a1.036,1.036,0,0,1-1.056,1.783l-5.124-3.035a.765.765,0,0,0-.78,1.317l3.773,2.235h0a1.036,1.036,0,0,1-1.057,1.782l-2.025-1.2h0l-1.478-.876a.765.765,0,0,0-.78,1.317l1.478.876h0a1.036,1.036,0,1,1-1.056,1.782l-1.724-1.021a2.564,2.564,0,0,0-1.723-3.923,2.564,2.564,0,0,0-2.8-3.433,2.565,2.565,0,0,0-4.353-1.371,2.563,2.563,0,0,0-3.567-.915l-.351-.207,4.813-8.124.229.135a3.875,3.875,0,0,0,3.391.282l1.471-.569a2.258,2.258,0,0,1,2.139.046,3.425,3.425,0,0,0-.868,2.282v3.393a1.637,1.637,0,0,0,1.633,1.635h0a3.389,3.389,0,0,0,3.2-2.291l10.1,5.98a1.035,1.035,0,0,1,.363,1.419Zm5.55-5.216-1.577.934a1.463,1.463,0,0,1-2-.512L119.932,262a.765.765,0,0,0-1.317.78l2.411,4.071c.045.077.095.149.146.22l-.67.392a3.881,3.881,0,0,0-.391.265l-10.4-6.156a.766.766,0,0,0-1.155.658,1.954,1.954,0,0,1-.543,1.454,1.841,1.841,0,0,1-1.31.542h0a.1.1,0,0,1-.1-.105v-3.393a1.9,1.9,0,0,1,1.434-1.843l2.542-.643c.922-.233,1.443.259,2.824.727a3.869,3.869,0,0,0,2.926-.047l.462.78a.765.765,0,0,0,1.317-.78l-.91-1.535a1.46,1.46,0,0,1,.512-2l1.577-.934a.148.148,0,0,1,.2.052l6.484,10.944A.148.148,0,0,1,125.922,265.652Z" transform="translate(-81.346 -227.208)"/>
    </g>
  </g>
</svg>
