<svg xmlns="http://www.w3.org/2000/svg" width="19.238" height="15.31" viewBox="0 0 19.238 15.31">
  <g id="home_2_" data-name="home (2)" transform="translate(0.001 -46.994)">
    <g id="Group_849" data-name="Group 849" transform="translate(-0.001 46.994)">
      <path id="Path_40803" data-name="Path 40803" d="M72.571,120.939,65.71,126.6a.162.162,0,0,1-.006.036.163.163,0,0,0-.006.036v5.728a.775.775,0,0,0,.764.764h4.582v-4.582H74.1v4.582h4.582a.776.776,0,0,0,.764-.764v-5.728a.168.168,0,0,0-.012-.071Z" transform="translate(-62.952 -117.848)" fill="#333533"/>
      <path id="Path_40804" data-name="Path 40804" d="M19.1,54.452,16.492,52.28V47.412a.368.368,0,0,0-.382-.382H13.819a.367.367,0,0,0-.382.382v2.327L10.526,47.3a1.48,1.48,0,0,0-1.814,0L.132,54.452A.347.347,0,0,0,0,54.709a.386.386,0,0,0,.083.281l.74.883A.407.407,0,0,0,1.075,56a.444.444,0,0,0,.287-.084l8.257-6.885,8.257,6.885a.368.368,0,0,0,.251.083h.036a.408.408,0,0,0,.251-.131l.74-.883a.386.386,0,0,0,.083-.281A.348.348,0,0,0,19.1,54.452Z" transform="translate(0.001 -46.994)" fill="#333533"/>
    </g>
  </g>
</svg>
