<svg xmlns="http://www.w3.org/2000/svg" width="51.848" height="51.792" viewBox="0 0 51.848 51.792">
  <path id="increase" d="M16.148,38.807a33.71,33.71,0,0,0,3.938-.445V50.676H16.148ZM0,50.676H3.938V38.86H0ZM8.074,38.86V50.676h3.938V38.86Zm32.2,11.816H44.21V20.737a33.5,33.5,0,0,1-3.939,5.913Zm-8.074,0h3.938V30.831A33.619,33.619,0,0,1,32.2,33.718ZM24.123,37.4V50.676h3.939V35.925c-.211.095.347-.091-.637.278s-2.185.857-3.3,1.2ZM42.114.332,33.759,8.687l2.785,2.785,3.463-3.463A25.933,25.933,0,0,1,14.277,30.982H0v3.939H14.277a29.64,29.64,0,0,0,21.1-8.739,29.609,29.609,0,0,0,8.617-18.4L47.614,11.4,50.4,8.617Zm0,0" transform="translate(0.6 0.517)" fill="none" stroke="#000" stroke-width="1.2" opacity="0.5"/>
</svg>
