<svg width="221" height="84" viewBox="0 0 221 84" fill="none" xmlns="http://www.w3.org/2000/svg">
<path d="M80 83.2432V8.68953C80 3.89079 78.042 0.00105574 75.6282 0.00105574H63.0338L62.7027 83.2432H80Z" fill="#B5322A"/>
<path d="M80 0.00105716V41.0811L71.2672 32.5994L62.7027 41.0811L62.8666 0L80 0.00105716Z" fill="#B5322A"/>
<path d="M43.0653 16.2162L24.8649 78.716L41.5778 83.2433L59.4595 20.6594L43.0653 16.2162Z" fill="#68A1CA"/>
<path d="M59.1514 20.5544L48.5509 58.2598L42.357 47.7928L32.1244 54.0831L42.9633 16.0976L59.1514 20.5544Z" fill="#517A95"/>
<path d="M13.9692 30.6245L0 79.0326L16.609 83.5974L30.2703 35.1024L13.9692 30.6245Z" fill="#FAC85B"/>
<path d="M31.6496 30.4864L23.4199 58.3784L17.357 48.2512L6.78473 54.2337L14.8909 25.9459L31.6496 30.4864Z" fill="#FAC85B"/>
<path d="M120.256 1.48H128.64V2.408H124.992V13H123.904V2.408H120.256V1.48ZM130.171 13V1.48H131.259V6.424H138.075V1.48H139.163V13H138.075V7.352H131.259V13H130.171ZM141.734 13V1.48H149.398V2.408H142.822V6.568H148.758V7.496H142.822V12.072H149.558V13H141.734ZM121.296 36V24.48H122.384V35.072H128.56V36H121.296ZM130.571 36V24.48H131.659V36H130.571ZM133.6 24.48H141.984V25.408H138.336V36H137.248V25.408H133.6V24.48ZM142.49 24.48H150.874V25.408H147.226V36H146.138V25.408H142.49V24.48ZM152.421 36V24.48H153.509V35.072H159.685V36H152.421ZM161.312 36V24.48H168.976V25.408H162.4V29.568H168.336V30.496H162.4V35.072H169.136V36H161.312ZM122.384 58.072H125.152C125.749 58.072 126.267 58.0453 126.704 57.992C127.152 57.9387 127.52 57.832 127.808 57.672C128.096 57.5013 128.309 57.2667 128.448 56.968C128.597 56.6587 128.672 56.2533 128.672 55.752C128.672 55.272 128.592 54.888 128.432 54.6C128.272 54.3013 128.043 54.072 127.744 53.912C127.445 53.752 127.088 53.6453 126.672 53.592C126.256 53.528 125.792 53.496 125.28 53.496H122.384V58.072ZM122.384 52.568H125.136C125.701 52.568 126.176 52.52 126.56 52.424C126.944 52.328 127.253 52.1893 127.488 52.008C127.723 51.816 127.888 51.5867 127.984 51.32C128.091 51.0427 128.144 50.728 128.144 50.376C128.144 50.0133 128.085 49.7093 127.968 49.464C127.851 49.208 127.664 49.0053 127.408 48.856C127.152 48.696 126.816 48.584 126.4 48.52C125.995 48.4453 125.493 48.408 124.896 48.408H122.384V52.568ZM121.296 59V47.48H125.456C126.128 47.48 126.704 47.5493 127.184 47.688C127.664 47.8267 128.053 48.024 128.352 48.28C128.661 48.536 128.885 48.8453 129.024 49.208C129.163 49.56 129.232 49.9493 129.232 50.376C129.232 50.7813 129.179 51.1333 129.072 51.432C128.965 51.72 128.827 51.9653 128.656 52.168C128.485 52.36 128.288 52.5147 128.064 52.632C127.851 52.7387 127.627 52.8133 127.392 52.856V52.888C128.192 53.0053 128.784 53.32 129.168 53.832C129.563 54.344 129.76 54.984 129.76 55.752C129.76 56.3493 129.664 56.856 129.472 57.272C129.291 57.688 129.035 58.024 128.704 58.28C128.373 58.536 127.973 58.7227 127.504 58.84C127.045 58.9467 126.544 59 126 59H121.296ZM131.52 53.256C131.52 52.4133 131.632 51.624 131.856 50.888C132.091 50.152 132.432 49.512 132.88 48.968C133.328 48.4133 133.883 47.976 134.544 47.656C135.205 47.336 135.968 47.176 136.832 47.176C137.728 47.176 138.512 47.336 139.184 47.656C139.867 47.9653 140.432 48.3973 140.88 48.952C141.339 49.496 141.68 50.1413 141.904 50.888C142.139 51.624 142.256 52.4133 142.256 53.256C142.256 54.088 142.139 54.872 141.904 55.608C141.68 56.3333 141.344 56.9733 140.896 57.528C140.448 58.072 139.888 58.504 139.216 58.824C138.544 59.144 137.765 59.304 136.88 59.304C135.995 59.304 135.216 59.144 134.544 58.824C133.872 58.504 133.312 58.072 132.864 57.528C132.416 56.9733 132.08 56.3333 131.856 55.608C131.632 54.872 131.52 54.088 131.52 53.256ZM136.896 58.376C137.643 58.376 138.283 58.2373 138.816 57.96C139.36 57.672 139.803 57.2933 140.144 56.824C140.496 56.3547 140.752 55.8107 140.912 55.192C141.083 54.5733 141.168 53.928 141.168 53.256C141.168 52.456 141.067 51.7413 140.864 51.112C140.672 50.472 140.389 49.928 140.016 49.48C139.643 49.032 139.189 48.6907 138.656 48.456C138.123 48.2213 137.525 48.104 136.864 48.104C136.128 48.104 135.488 48.248 134.944 48.536C134.411 48.824 133.968 49.208 133.616 49.688C133.275 50.1573 133.019 50.7013 132.848 51.32C132.688 51.9387 132.608 52.584 132.608 53.256C132.608 53.9387 132.688 54.5893 132.848 55.208C133.019 55.8267 133.275 56.3707 133.616 56.84C133.968 57.3093 134.411 57.6827 134.944 57.96C135.488 58.2373 136.139 58.376 136.896 58.376ZM143.973 53.256C143.973 52.4133 144.085 51.624 144.309 50.888C144.544 50.152 144.885 49.512 145.333 48.968C145.781 48.4133 146.336 47.976 146.997 47.656C147.658 47.336 148.421 47.176 149.285 47.176C150.181 47.176 150.965 47.336 151.637 47.656C152.32 47.9653 152.885 48.3973 153.333 48.952C153.792 49.496 154.133 50.1413 154.357 50.888C154.592 51.624 154.709 52.4133 154.709 53.256C154.709 54.088 154.592 54.872 154.357 55.608C154.133 56.3333 153.797 56.9733 153.349 57.528C152.901 58.072 152.341 58.504 151.669 58.824C150.997 59.144 150.218 59.304 149.333 59.304C148.448 59.304 147.669 59.144 146.997 58.824C146.325 58.504 145.765 58.072 145.317 57.528C144.869 56.9733 144.533 56.3333 144.309 55.608C144.085 54.872 143.973 54.088 143.973 53.256ZM149.349 58.376C150.096 58.376 150.736 58.2373 151.269 57.96C151.813 57.672 152.256 57.2933 152.597 56.824C152.949 56.3547 153.205 55.8107 153.365 55.192C153.536 54.5733 153.621 53.928 153.621 53.256C153.621 52.456 153.52 51.7413 153.317 51.112C153.125 50.472 152.842 49.928 152.469 49.48C152.096 49.032 151.642 48.6907 151.109 48.456C150.576 48.2213 149.978 48.104 149.317 48.104C148.581 48.104 147.941 48.248 147.397 48.536C146.864 48.824 146.421 49.208 146.069 49.688C145.728 50.1573 145.472 50.7013 145.301 51.32C145.141 51.9387 145.061 52.584 145.061 53.256C145.061 53.9387 145.141 54.5893 145.301 55.208C145.472 55.8267 145.728 56.3707 146.069 56.84C146.421 57.3093 146.864 57.6827 147.397 57.96C147.941 58.2373 148.592 58.376 149.349 58.376ZM156.938 59V47.48H158.026V53.448L163.93 47.48H165.162L160.618 52.072L165.962 59H164.634L159.834 52.744L158.026 54.552V59H156.938ZM129.472 73.824C129.248 72.8427 128.832 72.144 128.224 71.728C127.616 71.312 126.821 71.104 125.84 71.104C125.147 71.104 124.549 71.2427 124.048 71.52C123.547 71.7973 123.131 72.1707 122.8 72.64C122.48 73.1093 122.24 73.6533 122.08 74.272C121.931 74.88 121.856 75.5253 121.856 76.208C121.856 76.848 121.92 77.4773 122.048 78.096C122.187 78.7147 122.411 79.2693 122.72 79.76C123.029 80.24 123.445 80.6293 123.968 80.928C124.491 81.2267 125.147 81.376 125.936 81.376C126.427 81.376 126.875 81.296 127.28 81.136C127.685 80.976 128.037 80.7573 128.336 80.48C128.645 80.192 128.901 79.856 129.104 79.472C129.317 79.088 129.477 78.6667 129.584 78.208H130.72C130.592 78.7627 130.405 79.2907 130.16 79.792C129.915 80.2827 129.589 80.7147 129.184 81.088C128.789 81.4613 128.304 81.76 127.728 81.984C127.163 82.1973 126.496 82.304 125.728 82.304C124.843 82.304 124.085 82.144 123.456 81.824C122.827 81.4933 122.309 81.0507 121.904 80.496C121.509 79.9413 121.221 79.3013 121.04 78.576C120.859 77.84 120.768 77.0613 120.768 76.24C120.768 75.1413 120.901 74.208 121.168 73.44C121.445 72.672 121.824 72.048 122.304 71.568C122.784 71.0773 123.349 70.7253 124 70.512C124.651 70.288 125.36 70.176 126.128 70.176C126.715 70.176 127.259 70.256 127.76 70.416C128.272 70.5653 128.72 70.7947 129.104 71.104C129.499 71.4133 129.819 71.7973 130.064 72.256C130.32 72.704 130.496 73.2267 130.592 73.824H129.472ZM132.395 76.256C132.395 75.4133 132.507 74.624 132.731 73.888C132.966 73.152 133.307 72.512 133.755 71.968C134.203 71.4133 134.758 70.976 135.419 70.656C136.08 70.336 136.843 70.176 137.707 70.176C138.603 70.176 139.387 70.336 140.059 70.656C140.742 70.9653 141.307 71.3973 141.755 71.952C142.214 72.496 142.555 73.1413 142.779 73.888C143.014 74.624 143.131 75.4133 143.131 76.256C143.131 77.088 143.014 77.872 142.779 78.608C142.555 79.3333 142.219 79.9733 141.771 80.528C141.323 81.072 140.763 81.504 140.091 81.824C139.419 82.144 138.64 82.304 137.755 82.304C136.87 82.304 136.091 82.144 135.419 81.824C134.747 81.504 134.187 81.072 133.739 80.528C133.291 79.9733 132.955 79.3333 132.731 78.608C132.507 77.872 132.395 77.088 132.395 76.256ZM137.771 81.376C138.518 81.376 139.158 81.2373 139.691 80.96C140.235 80.672 140.678 80.2933 141.019 79.824C141.371 79.3547 141.627 78.8107 141.787 78.192C141.958 77.5733 142.043 76.928 142.043 76.256C142.043 75.456 141.942 74.7413 141.739 74.112C141.547 73.472 141.264 72.928 140.891 72.48C140.518 72.032 140.064 71.6907 139.531 71.456C138.998 71.2213 138.4 71.104 137.739 71.104C137.003 71.104 136.363 71.248 135.819 71.536C135.286 71.824 134.843 72.208 134.491 72.688C134.15 73.1573 133.894 73.7013 133.723 74.32C133.563 74.9387 133.483 75.584 133.483 76.256C133.483 76.9387 133.563 77.5893 133.723 78.208C133.894 78.8267 134.15 79.3707 134.491 79.84C134.843 80.3093 135.286 80.6827 135.819 80.96C136.363 81.2373 137.014 81.376 137.771 81.376ZM145.248 82V70.48H146.912L150.688 80.64H150.72L154.432 70.48H156.08V82H154.992V71.728H154.96L151.184 82H150.16L146.368 71.728H146.336V82H145.248ZM158.576 82V70.48H162.784C163.531 70.48 164.144 70.5653 164.624 70.736C165.115 70.9067 165.499 71.1413 165.776 71.44C166.064 71.7387 166.261 72.0853 166.368 72.48C166.485 72.864 166.544 73.2693 166.544 73.696C166.544 74.336 166.411 74.864 166.144 75.28C165.888 75.696 165.552 76.0267 165.136 76.272C164.72 76.5067 164.245 76.672 163.712 76.768C163.189 76.864 162.661 76.912 162.128 76.912H159.664V82H158.576ZM162.16 75.984C162.672 75.984 163.131 75.952 163.536 75.888C163.941 75.824 164.283 75.7067 164.56 75.536C164.848 75.3547 165.067 75.1147 165.216 74.816C165.376 74.5067 165.456 74.1067 165.456 73.616C165.456 72.8907 165.216 72.3413 164.736 71.968C164.267 71.5947 163.515 71.408 162.48 71.408H159.664V75.984H162.16ZM166.162 82L170.69 70.48H171.922L176.338 82H175.218L173.89 78.384H168.642L167.282 82H166.162ZM169.01 77.456H173.522L171.266 71.408L169.01 77.456ZM178.978 71.952H178.946V82H177.858V70.48H179.09L185.746 80.544H185.778V70.48H186.866V82H185.602L178.978 71.952ZM192.973 76.032L196.445 70.48H197.709L193.533 76.976V82H192.445V77.056L188.333 70.48H189.581L192.973 76.032Z" fill="#1A1818"/>
</svg>
