<svg xmlns="http://www.w3.org/2000/svg" width="291.8" height="125.1" viewBox="0 0 291.8 125.1">
  <g id="Logo-01" transform="translate(-212.6 -194.5)">
    <g id="Group_753" data-name="Group 753">
      <g id="Group_752" data-name="Group 752">
        <path id="Path_40780" data-name="Path 40780" d="M212.6,306.4h3.7c1.9,0,3.2,1,3.2,2.9s-1.3,2.9-3.3,2.9h-2.8v4.5h-.8V306.4Zm.8,5.1h2.8c1.7,0,2.4-.9,2.4-2.2a2.077,2.077,0,0,0-2.3-2.2h-2.9Z"/>
        <path id="Path_40781" data-name="Path 40781" d="M221.2,316.7V305.9h.7v10.8Z"/>
        <path id="Path_40782" data-name="Path 40782" d="M229.3,315.3c0,.6.1,1.2.1,1.4h-.7a2.814,2.814,0,0,1-.1-1.1,2.54,2.54,0,0,1-2.4,1.3,2.154,2.154,0,0,1-2.4-2.2c0-1.6,1.3-2.4,3.5-2.4h1.4v-.8c0-.7-.2-1.7-1.9-1.7a1.664,1.664,0,0,0-1.9,1.4H224a2.321,2.321,0,0,1,2.6-2.1c1.7,0,2.6.7,2.6,2.3v3.9Zm-.8-2.3h-1.4c-1.6,0-2.6.4-2.6,1.7a1.605,1.605,0,0,0,1.7,1.6c2.1,0,2.4-1.4,2.4-3V313Z"/>
        <path id="Path_40783" data-name="Path 40783" d="M230.5,309.4h1.4v-2.3h.7v2.3h1.8v.7h-1.8v4.8c0,.8.2,1.3.9,1.3a2.485,2.485,0,0,0,.8-.1v.6a2.768,2.768,0,0,1-.9.1,1.4,1.4,0,0,1-1.5-1.6v-5.1h-1.4Z"/>
        <path id="Path_40784" data-name="Path 40784" d="M236.1,316.7V310h-1.3v-.7h1.3v-1c0-1.2.4-2.6,2-2.6a1.7,1.7,0,0,1,.7.1v.7a2.2,2.2,0,0,0-.8-.1c-.9,0-1.2.6-1.2,1.9v1h1.6v.7h-1.6v6.7Z"/>
        <path id="Path_40785" data-name="Path 40785" d="M245.5,313c0,2-1.1,3.9-3.3,3.9-2,0-3.2-1.6-3.2-3.9,0-2.1,1.2-3.9,3.3-3.9C244.2,309.2,245.5,310.7,245.5,313Zm-5.7,0c0,1.8.9,3.2,2.5,3.2s2.5-1.3,2.5-3.2c0-1.7-.9-3.2-2.5-3.2C240.5,309.9,239.8,311.3,239.8,313Z"/>
        <path id="Path_40786" data-name="Path 40786" d="M247.3,311.4v-2h.7V311a2.706,2.706,0,0,1,2.6-1.8v.8a2.722,2.722,0,0,0-2.6,2.9v3.8h-.7Z"/>
        <path id="Path_40787" data-name="Path 40787" d="M251.9,311.3v-1.9h.7v1.3a2.364,2.364,0,0,1,2.2-1.5,2.048,2.048,0,0,1,2.1,1.5,2.512,2.512,0,0,1,2.4-1.5c1.1,0,2.3.6,2.3,2.7v4.8H261V312c0-1-.4-2.1-1.7-2.1-1.4,0-2.1,1.1-2.1,2.6v4.2h-.7V312c0-1.1-.3-2.1-1.7-2.1s-2.1,1.3-2.1,2.8v4H252v-5.4Z"/>
        <path id="Path_40788" data-name="Path 40788" d="M268.2,316.7V310h-1.3v-.7h1.3v-1c0-1.2.4-2.6,2-2.6a1.7,1.7,0,0,1,.7.1v.7a2.2,2.2,0,0,0-.8-.1c-.9,0-1.2.6-1.2,1.9v1h1.6v.7h-1.6v6.7Z"/>
        <path id="Path_40789" data-name="Path 40789" d="M277.6,313c0,2-1.1,3.9-3.3,3.9-2,0-3.2-1.6-3.2-3.9,0-2.1,1.2-3.9,3.3-3.9C276.3,309.2,277.6,310.7,277.6,313Zm-5.8,0c0,1.8.9,3.2,2.5,3.2s2.5-1.3,2.5-3.2c0-1.7-.9-3.2-2.5-3.2C272.6,309.9,271.8,311.3,271.8,313Z"/>
        <path id="Path_40790" data-name="Path 40790" d="M279.4,311.4v-2h.7V311a2.706,2.706,0,0,1,2.6-1.8v.8a2.722,2.722,0,0,0-2.6,2.9v3.8h-.7Z"/>
        <path id="Path_40791" data-name="Path 40791" d="M288.8,315.6v4H288V309.3h.7v1.3a2.76,2.76,0,0,1,2.6-1.5c1.7,0,2.9,1.5,2.9,3.7,0,2.6-1.4,4-3.2,4A2.038,2.038,0,0,1,288.8,315.6Zm4.7-2.7c0-1.7-.8-3-2.3-3-1.8,0-2.5,1.1-2.5,3.1s.6,3.2,2.4,3.2C292.7,316.2,293.5,314.9,293.5,312.9Z"/>
        <path id="Path_40792" data-name="Path 40792" d="M301.6,314.6v2.1h-.7v-1.3a2.291,2.291,0,0,1-2.4,1.5c-1.1,0-2.4-.4-2.4-2.7v-4.9h.7V314c0,1.1.3,2.1,1.8,2.1,1.6,0,2.3-.9,2.3-3v-3.8h.7Z"/>
        <path id="Path_40793" data-name="Path 40793" d="M304,305.9h.7v4.7a2.655,2.655,0,0,1,2.5-1.4c1.7,0,3,1.4,3,3.7s-1.1,4-3.2,4a2.326,2.326,0,0,1-2.3-1.3v1.2H304V305.9Zm5.5,7c0-1.8-.9-3-2.3-3-1.8,0-2.5,1.3-2.5,3.2,0,1.7.6,3.1,2.4,3.1C308.6,316.2,309.5,315,309.5,312.9Z"/>
        <path id="Path_40794" data-name="Path 40794" d="M312.1,316.7V305.9h.7v10.8Z"/>
        <path id="Path_40795" data-name="Path 40795" d="M315.3,305.9h.7v1.4h-.7Zm0,3.5h.7v7.4h-.7Z"/>
        <path id="Path_40796" data-name="Path 40796" d="M318.3,314.7a1.909,1.909,0,0,0,2.1,1.5c1.3,0,1.8-.6,1.8-1.4s-.4-1.3-2-1.6c-1.9-.5-2.4-1-2.4-2a2.126,2.126,0,0,1,2.4-2,2.391,2.391,0,0,1,2.6,2.1h-.7a1.735,1.735,0,0,0-1.9-1.4c-1.3,0-1.6.6-1.6,1.2,0,.7.4,1,1.8,1.4,2.1.5,2.6,1.2,2.6,2.3a2.333,2.333,0,0,1-2.6,2.2,2.524,2.524,0,0,1-2.8-2.2h.7Z"/>
        <path id="Path_40797" data-name="Path 40797" d="M325.5,305.9v4.7a2.444,2.444,0,0,1,2.4-1.4c1,0,2.5.5,2.5,2.9v4.7h-.7v-4.5c0-1.5-.7-2.3-1.9-2.3-1.5,0-2.3.9-2.3,2.7v4.1h-.7V306h.7Z"/>
        <path id="Path_40798" data-name="Path 40798" d="M333,313.1c0,1.9,1,3.1,2.4,3.1a1.986,1.986,0,0,0,2.1-1.4h.8a2.812,2.812,0,0,1-2.9,2.1c-2.2,0-3.1-1.9-3.1-3.8,0-2.1,1-3.9,3.2-3.9a3.039,3.039,0,0,1,3,3.3v.6H333Zm4.6-.6c0-1.5-.8-2.6-2.3-2.6s-2.2,1.1-2.4,2.6Z"/>
        <path id="Path_40799" data-name="Path 40799" d="M340.2,311.4v-2h.7V311a2.706,2.706,0,0,1,2.6-1.8v.8a2.722,2.722,0,0,0-2.6,2.9v3.8h-.7Z"/>
        <path id="Path_40800" data-name="Path 40800" d="M345,314.7a1.909,1.909,0,0,0,2.1,1.5c1.3,0,1.8-.6,1.8-1.4s-.4-1.3-2-1.6c-1.9-.5-2.4-1-2.4-2a2.126,2.126,0,0,1,2.4-2,2.391,2.391,0,0,1,2.6,2.1h-.7a1.735,1.735,0,0,0-1.9-1.4c-1.3,0-1.6.6-1.6,1.2,0,.7.4,1,1.8,1.4,2.1.5,2.6,1.2,2.6,2.3a2.333,2.333,0,0,1-2.6,2.2,2.524,2.524,0,0,1-2.8-2.2h.7Z"/>
        <path id="Path_40801" data-name="Path 40801" d="M350.6,318.4a8.557,8.557,0,0,0,1-3.6h.7a10.122,10.122,0,0,1-1.1,3.6Z"/>
        <path id="Path_40802" data-name="Path 40802" d="M363.1,315.3c0,.6.1,1.2.1,1.4h-.7a2.814,2.814,0,0,1-.1-1.1,2.54,2.54,0,0,1-2.4,1.3,2.154,2.154,0,0,1-2.4-2.2c0-1.6,1.3-2.4,3.5-2.4h1.4v-.8c0-.7-.2-1.7-1.9-1.7a1.664,1.664,0,0,0-1.9,1.4H358a2.321,2.321,0,0,1,2.6-2.1c1.7,0,2.6.7,2.6,2.3v3.9Zm-.7-2.3H361c-1.6,0-2.6.4-2.6,1.7a1.605,1.605,0,0,0,1.7,1.6c2.1,0,2.4-1.4,2.4-3V313Z"/>
        <path id="Path_40803" data-name="Path 40803" d="M371,314.6v2.1h-.7v-1.3a2.291,2.291,0,0,1-2.4,1.5c-1.1,0-2.4-.4-2.4-2.7v-4.9h.7V314c0,1.1.3,2.1,1.8,2.1,1.6,0,2.3-.9,2.3-3v-3.8h.7Z"/>
        <path id="Path_40804" data-name="Path 40804" d="M372.5,309.4h1.4v-2.3h.7v2.3h1.8v.7h-1.8v4.8c0,.8.2,1.3.9,1.3a2.485,2.485,0,0,0,.8-.1v.6a2.768,2.768,0,0,1-.9.1,1.4,1.4,0,0,1-1.5-1.6v-5.1h-1.4Z"/>
        <path id="Path_40805" data-name="Path 40805" d="M378.5,305.9v4.7a2.444,2.444,0,0,1,2.4-1.4c1,0,2.5.5,2.5,2.9v4.7h-.7v-4.5c0-1.5-.7-2.3-1.9-2.3-1.5,0-2.3.9-2.3,2.7v4.1h-.7V306h.7Z"/>
        <path id="Path_40806" data-name="Path 40806" d="M391.8,313c0,2-1.1,3.9-3.3,3.9-2,0-3.2-1.6-3.2-3.9,0-2.1,1.2-3.9,3.3-3.9C390.5,309.2,391.8,310.7,391.8,313Zm-5.8,0c0,1.8.9,3.2,2.5,3.2s2.5-1.3,2.5-3.2c0-1.7-.9-3.2-2.5-3.2C386.8,309.9,386,311.3,386,313Z"/>
        <path id="Path_40807" data-name="Path 40807" d="M393.6,311.4v-2h.7V311a2.706,2.706,0,0,1,2.6-1.8v.8a2.722,2.722,0,0,0-2.6,2.9v3.8h-.7Z"/>
        <path id="Path_40808" data-name="Path 40808" d="M398.4,314.7a1.909,1.909,0,0,0,2.1,1.5c1.3,0,1.8-.6,1.8-1.4s-.4-1.3-2-1.6c-1.9-.5-2.4-1-2.4-2a2.126,2.126,0,0,1,2.4-2,2.391,2.391,0,0,1,2.6,2.1h-.7a1.735,1.735,0,0,0-1.9-1.4c-1.3,0-1.6.6-1.6,1.2,0,.7.4,1,1.8,1.4,2.1.5,2.6,1.2,2.6,2.3a2.333,2.333,0,0,1-2.6,2.2,2.524,2.524,0,0,1-2.8-2.2h.7Z"/>
        <path id="Path_40809" data-name="Path 40809" d="M413.8,315.3c0,.6.1,1.2.1,1.4h-.7a2.814,2.814,0,0,1-.1-1.1,2.54,2.54,0,0,1-2.4,1.3,2.154,2.154,0,0,1-2.4-2.2c0-1.6,1.3-2.4,3.5-2.4h1.4v-.8c0-.7-.2-1.7-1.9-1.7a1.664,1.664,0,0,0-1.9,1.4h-.7a2.321,2.321,0,0,1,2.6-2.1c1.7,0,2.6.7,2.6,2.3v3.9Zm-.7-2.3h-1.4c-1.6,0-2.6.4-2.6,1.7a1.605,1.605,0,0,0,1.7,1.6c2.1,0,2.4-1.4,2.4-3V313Z"/>
        <path id="Path_40810" data-name="Path 40810" d="M416.3,311.2v-1.9h.7v1.4a2.3,2.3,0,0,1,2.4-1.6c1.3,0,2.5.7,2.5,2.8v4.8h-.7v-4.6c0-1.3-.5-2.2-1.8-2.2-1.8,0-2.4,1.5-2.4,3.1v3.8h-.7Z"/>
        <path id="Path_40811" data-name="Path 40811" d="M430,305.9v10.8h-.7v-1.2a2.449,2.449,0,0,1-2.5,1.4c-1.9,0-3.1-1.6-3.1-3.8,0-2.3,1.3-3.9,3.3-3.9,1.5,0,2.1.6,2.3,1.1v-4.4h.7Zm-5.5,7.2c0,2,1,3.1,2.3,3.1,1.9,0,2.5-1.3,2.5-3.3,0-1.9-.5-3-2.3-3C425.5,309.9,424.5,311,424.5,313.1Z"/>
        <path id="Path_40812" data-name="Path 40812" d="M436.2,305.9h.7v4.7a2.655,2.655,0,0,1,2.5-1.4c1.7,0,3,1.4,3,3.7s-1.1,4-3.2,4a2.326,2.326,0,0,1-2.3-1.3v1.2h-.7V305.9Zm5.5,7c0-1.8-.9-3-2.3-3-1.8,0-2.5,1.3-2.5,3.2,0,1.7.6,3.1,2.4,3.1C440.8,316.2,441.7,315,441.7,312.9Z"/>
        <path id="Path_40813" data-name="Path 40813" d="M450.4,313c0,2-1.1,3.9-3.3,3.9-2,0-3.2-1.6-3.2-3.9,0-2.1,1.2-3.9,3.3-3.9C449.1,309.2,450.4,310.7,450.4,313Zm-5.8,0c0,1.8.9,3.2,2.5,3.2s2.5-1.3,2.5-3.2c0-1.7-.9-3.2-2.5-3.2C445.4,309.9,444.6,311.3,444.6,313Z"/>
        <path id="Path_40814" data-name="Path 40814" d="M458.2,313c0,2-1.1,3.9-3.3,3.9-2,0-3.2-1.6-3.2-3.9,0-2.1,1.2-3.9,3.3-3.9C457,309.2,458.2,310.7,458.2,313Zm-5.7,0c0,1.8.9,3.2,2.5,3.2s2.5-1.3,2.5-3.2c0-1.7-.9-3.2-2.5-3.2C453.3,309.9,452.5,311.3,452.5,313Z"/>
        <path id="Path_40815" data-name="Path 40815" d="M460.8,313.2c.7-.7,2.7-2.8,3.7-3.8h.9l-2.9,2.9,3.3,4.4h-.9l-2.9-4-1.2,1.2v2.8h-.7V305.9h.7Z"/>
        <path id="Path_40816" data-name="Path 40816" d="M467.3,314.7a1.909,1.909,0,0,0,2.1,1.5c1.3,0,1.8-.6,1.8-1.4s-.4-1.3-2-1.6c-1.9-.5-2.4-1-2.4-2a2.126,2.126,0,0,1,2.4-2,2.391,2.391,0,0,1,2.6,2.1h-.7a1.735,1.735,0,0,0-1.9-1.4c-1.3,0-1.6.6-1.6,1.2,0,.7.4,1,1.8,1.4,2.1.5,2.6,1.2,2.6,2.3a2.333,2.333,0,0,1-2.6,2.2,2.524,2.524,0,0,1-2.8-2.2h.7Z"/>
        <path id="Path_40817" data-name="Path 40817" d="M474,313.1c0,1.9,1,3.1,2.4,3.1a1.986,1.986,0,0,0,2.1-1.4h.8a2.812,2.812,0,0,1-2.9,2.1c-2.2,0-3.1-1.9-3.1-3.8,0-2.1,1-3.9,3.2-3.9a3.039,3.039,0,0,1,3,3.3v.6H474Zm4.6-.6c0-1.5-.8-2.6-2.3-2.6s-2.2,1.1-2.4,2.6Z"/>
        <path id="Path_40818" data-name="Path 40818" d="M481.2,316.7V305.9h.7v10.8Z"/>
        <path id="Path_40819" data-name="Path 40819" d="M484.4,316.7V305.9h.7v10.8Z"/>
        <path id="Path_40820" data-name="Path 40820" d="M487.7,313.1c0,1.9,1,3.1,2.4,3.1a1.986,1.986,0,0,0,2.1-1.4h.8a2.812,2.812,0,0,1-2.9,2.1c-2.2,0-3.1-1.9-3.1-3.8,0-2.1,1-3.9,3.2-3.9a3.039,3.039,0,0,1,3,3.3v.6h-5.5Zm4.7-.6c0-1.5-.8-2.6-2.3-2.6s-2.2,1.1-2.4,2.6Z"/>
        <path id="Path_40821" data-name="Path 40821" d="M494.9,311.4v-2h.7V311a2.706,2.706,0,0,1,2.6-1.8v.8a2.722,2.722,0,0,0-2.6,2.9v3.8h-.7Z"/>
        <path id="Path_40822" data-name="Path 40822" d="M499.7,314.7a1.909,1.909,0,0,0,2.1,1.5c1.3,0,1.8-.6,1.8-1.4s-.4-1.3-2-1.6c-1.9-.5-2.4-1-2.4-2a2.126,2.126,0,0,1,2.4-2,2.391,2.391,0,0,1,2.6,2.1h-.7a1.735,1.735,0,0,0-1.9-1.4c-1.3,0-1.6.6-1.6,1.2,0,.7.4,1,1.8,1.4,2.1.5,2.6,1.2,2.6,2.3a2.333,2.333,0,0,1-2.6,2.2,2.524,2.524,0,0,1-2.8-2.2h.7Z"/>
      </g>
    </g>
    <g id="Group_754" data-name="Group 754">
      <path id="Path_40823" data-name="Path 40823" d="M417.2,212.8l20.2,71.3-18.6,5.1-17.7-63.9-2.1-7.4Z" fill="#69a1ca" opacity="0.31"/>
      <path id="Path_40824" data-name="Path 40824" d="M444,229.4l15.6,54.7-18.5,5.1-13.7-49.1-1.6-5.7Z" fill="#fac85c" opacity="0.431"/>
      <path id="Path_40825" data-name="Path 40825" d="M379.1,289.2V204.4c0-5.5,2.2-9.9,4.9-9.9h14l.4,94.7Z" fill="#b6332a" opacity="0.388"/>
      <path id="Path_40826" data-name="Path 40826" d="M379.1,194.5v46.6l9.7-9.6,9.4,9.6-.2-46.6Z" fill="#b6332a"/>
      <path id="Path_40827" data-name="Path 40827" d="M399,217.9l12,43,6.9-11.9,11.6,7.1-12.2-43.3Z" fill="#527b96"/>
      <path id="Path_40828" data-name="Path 40828" d="M424.1,229.1l9.1,32.6,6.7-11.9,11.6,7-8.9-33.1Z" fill="#fac85c"/>
      <path id="Path_40829" data-name="Path 40829" d="M329.4,210.1V197.4H334v-1.2H323.4v1.2H328v12.7Z" fill="#1a1818"/>
      <path id="Path_40830" data-name="Path 40830" d="M348.5,210.1V196.2h-1.3v6.2H339v-6.2h-1.3v13.9H339v-6.5h8.2v6.5Z" fill="#1a1818"/>
      <path id="Path_40831" data-name="Path 40831" d="M361.5,208.9h-7.1v-5.3h6.7v-1.2h-6.7v-5h7.1v-1.2h-8.4v13.9h8.4Z" fill="#1a1818"/>
      <path id="Path_40832" data-name="Path 40832" d="M304.4,234h-7V221.2h-1.3v14h8.3Z" fill="#1a1818"/>
      <rect id="Rectangle_1502" data-name="Rectangle 1502" width="1.3" height="13.9" transform="translate(308.2 221.2)" fill="#1a1818"/>
      <path id="Path_40833" data-name="Path 40833" d="M319.2,235.2V222.4h4.6v-1.2H313.2v1.2h4.7v12.8Z" fill="#1a1818"/>
      <path id="Path_40834" data-name="Path 40834" d="M332.6,235.2V222.4h4.7v-1.2H326.6v1.2h4.7v12.8Z" fill="#1a1818"/>
      <path id="Path_40835" data-name="Path 40835" d="M349.2,234h-7V221.2h-1.3v14h8.3Z" fill="#1a1818"/>
      <path id="Path_40836" data-name="Path 40836" d="M361.5,234h-7.1v-5.4h6.7v-1.1h-6.7v-5.1h7.1v-1.2h-8.4v14h8.4Z" fill="#1a1818"/>
      <path id="Path_40837" data-name="Path 40837" d="M307.4,260.5v-5.4h3.5c2.4,0,3.7,1,3.7,2.7s-1.3,2.7-3.5,2.7h-3.7Zm0-11.6h3.5c1.9,0,3,.9,3,2.4,0,1.6-1.2,2.6-3.4,2.6h-3.1Zm3.8,12.8c2.9,0,4.7-1.4,4.7-3.8a3.5,3.5,0,0,0-3.3-3.5v-.1a3.112,3.112,0,0,0,2.5-3.1c0-2.1-1.6-3.4-4-3.4H306v13.9Z" fill="#1a1818"/>
      <path id="Path_40838" data-name="Path 40838" d="M325.6,248.7c3.1,0,5,2.3,5,6s-1.9,6-5,6-5-2.3-5-6S322.5,248.7,325.6,248.7Zm0-1.2c-3.9,0-6.3,2.8-6.3,7.2s2.4,7.2,6.3,7.2,6.3-2.8,6.3-7.2S329.4,247.5,325.6,247.5Z" fill="#1a1818"/>
      <path id="Path_40839" data-name="Path 40839" d="M341.7,248.7c3.1,0,5,2.3,5,6s-1.9,6-5,6-5-2.3-5-6S338.6,248.7,341.7,248.7Zm0-1.2c-3.9,0-6.3,2.8-6.3,7.2s2.4,7.2,6.3,7.2,6.3-2.8,6.3-7.2S345.6,247.5,341.7,247.5Z" fill="#1a1818"/>
      <path id="Path_40840" data-name="Path 40840" d="M353.4,261.7v-5l1.7-1.9,5.5,6.9h1.7l-6.3-7.8,5.7-6.2h-1.6l-6.7,7.3h0v-7.3H352v14Z" fill="#1a1818"/>
      <path id="Path_40841" data-name="Path 40841" d="M266.6,285.4c3,0,5.2-1.6,5.7-4.3H271a4.091,4.091,0,0,1-4.3,3.1c-3,0-4.9-2.3-4.9-6,0-3.6,1.9-5.9,4.9-5.9a4.232,4.232,0,0,1,4.3,3.4h1.3a5.485,5.485,0,0,0-5.7-4.6c-3.8,0-6.2,2.8-6.2,7.2C260.4,282.6,262.8,285.4,266.6,285.4Z" fill="#1a1818"/>
      <path id="Path_40842" data-name="Path 40842" d="M281.9,272.3c3.1,0,5,2.3,5,6s-1.9,6-5,6-5-2.3-5-6C277,274.6,278.9,272.3,281.9,272.3Zm0-1.2c-3.9,0-6.3,2.8-6.3,7.2s2.4,7.2,6.3,7.2,6.3-2.8,6.3-7.2C288.3,273.8,285.8,271.1,281.9,271.1Z" fill="#1a1818"/>
      <path id="Path_40843" data-name="Path 40843" d="M305.7,271.3h-1.5L299,283.5h0l-5.2-12.2h-1.5v13.9h1.2V273.8h.1l4.8,11.4h1.2l4.8-11.4h.1v11.4h1.2Z" fill="#1a1818"/>
      <path id="Path_40844" data-name="Path 40844" d="M311.6,272.5h3.3c2.2,0,3.4,1.2,3.4,3.2s-1.3,3.2-3.4,3.2h-3.3Zm-1.3-1.2v13.9h1.3V280h3.6a4.3,4.3,0,1,0,0-8.6h-4.9Z" fill="#1a1818"/>
      <path id="Path_40845" data-name="Path 40845" d="M327.1,272.9h0l2.6,6.9h-5.1Zm4.5,12.3H333l-5.2-13.9h-1.3l-5.2,13.9h1.4l1.5-4.3h5.9Z" fill="#1a1818"/>
      <path id="Path_40846" data-name="Path 40846" d="M337.8,285.2V273.6h.1l8.2,11.6h1.3V271.3h-1.3v11.6H346l-8.2-11.6h-1.3v13.9Z" fill="#1a1818"/>
      <path id="Path_40847" data-name="Path 40847" d="M357.2,285.2v-6l5-7.9h-1.5l-4.1,6.6h-.1l-4.1-6.6h-1.5l5,7.9v6Z" fill="#1a1818"/>
    </g>
    <line id="Line_42" data-name="Line 42" x2="206.8" transform="translate(256.6 297.5)" fill="none" stroke="#b73429" stroke-miterlimit="10" stroke-width="1"/>
  </g>
</svg>
