<svg xmlns="http://www.w3.org/2000/svg" width="47.194" height="47.19" viewBox="0 0 47.194 47.19">
  <g id="payment-method" transform="translate(0 -0.023)" opacity="0.5">
    <g id="Group_12535" data-name="Group 12535" transform="translate(14.08 35.404)">
      <g id="Group_12534" data-name="Group 12534">
        <path id="Path_40888" data-name="Path 40888" d="M154.575,384.6a.961.961,0,0,0-.053-.173.935.935,0,0,0-.085-.159.9.9,0,0,0-.254-.254.908.908,0,0,0-.159-.085.867.867,0,0,0-.172-.053.908.908,0,0,0-.359,0,.9.9,0,0,0-.173.053.933.933,0,0,0-.159.085.921.921,0,0,0-.339.413.892.892,0,0,0-.053.173.886.886,0,0,0,0,.359.866.866,0,0,0,.053.172.851.851,0,0,0,.085.159.9.9,0,0,0,.254.254.926.926,0,0,0,.159.085.89.89,0,0,0,.173.053.883.883,0,0,0,.359,0,.863.863,0,0,0,.172-.053.91.91,0,0,0,.159-.085.9.9,0,0,0,.254-.254.908.908,0,0,0,.085-.159.931.931,0,0,0,.053-.172.886.886,0,0,0,0-.359Z" transform="translate(-152.75 -383.857)"/>
      </g>
    </g>
    <g id="Group_12537" data-name="Group 12537" transform="translate(0 28.589)">
      <g id="Group_12536" data-name="Group 12536">
        <path id="Path_40889" data-name="Path 40889" d="M42.4,317.762l-.011-.027c-.848-1.985-2.838-2.719-5.193-1.915L30.775,317.6a4.21,4.21,0,0,0-2.607-2.567l-.024-.009-7.059-2.4a7.281,7.281,0,0,0-5.874-2.7,7.371,7.371,0,0,0-5.757,3.453H.922A.922.922,0,0,0,0,314.3v11.621a.922.922,0,0,0,.922.922H6.4a.922.922,0,0,0,.922-.922v-.8h2.57a.922.922,0,0,0,.922-.922v-.265a6.535,6.535,0,0,1,3.367,1.208,55.784,55.784,0,0,0,5.538,2.827l.04.017a8.274,8.274,0,0,0,2.966.559,7.347,7.347,0,0,0,3.054-.654l14.194-5.082c.025-.009.05-.019.074-.03C41.406,322.156,43.427,320.4,42.4,317.762ZM5.481,325H1.844v-9.778H5.481Zm3.492-1.718H7.324v-8.06H8.972Zm30.34-2.189-14.188,5.08-.042.016-.037.016a5.974,5.974,0,0,1-4.59.078,53.4,53.4,0,0,1-5.352-2.734,8.3,8.3,0,0,0-4.288-1.459v-7.424c.874-1.432,2.568-2.9,4.395-2.9a5.319,5.319,0,0,1,4.512,2.12.922.922,0,0,0,.489.39l7.326,2.486a2.068,2.068,0,0,1,1.5,2.44,1.8,1.8,0,0,1-2.207,1.24l-8.258-2.617a.922.922,0,1,0-.557,1.757l8.273,2.622.026.008a3.618,3.618,0,0,0,2.767-.322,3.615,3.615,0,0,0,1.729-2.184q.032-.112.056-.224l6.921-1.917c1-.341,2.312-.464,2.9.881C41.293,320.026,39.721,320.894,39.313,321.089Z" transform="translate(0 -309.922)"/>
      </g>
    </g>
    <g id="Group_12539" data-name="Group 12539" transform="translate(31.271 11.405)">
      <g id="Group_12538" data-name="Group 12538">
        <path id="Path_40890" data-name="Path 40890" d="M341.076,124.24a.893.893,0,0,0-.053-.173.908.908,0,0,0-.339-.413.933.933,0,0,0-.159-.085.918.918,0,0,0-.533-.053.866.866,0,0,0-.172.053.91.91,0,0,0-.159.085.9.9,0,0,0-.254.254.938.938,0,0,0-.085.159.892.892,0,0,0-.053.173.886.886,0,0,0,0,.359.865.865,0,0,0,.053.172.912.912,0,0,0,.085.159.9.9,0,0,0,.254.254.911.911,0,0,0,.159.085.932.932,0,0,0,.172.053.909.909,0,0,0,.18.018.925.925,0,0,0,.181-.018.976.976,0,0,0,.172-.053.934.934,0,0,0,.159-.085.9.9,0,0,0,.254-.254.853.853,0,0,0,.085-.159.866.866,0,0,0,.053-.172.931.931,0,0,0,0-.359Z" transform="translate(-339.25 -123.498)"/>
      </g>
    </g>
    <g id="Group_12541" data-name="Group 12541" transform="translate(2.737 0.023)">
      <g id="Group_12540" data-name="Group 12540" transform="translate(0 0)">
        <path id="Path_40891" data-name="Path 40891" d="M73.226,3.145H67.746a.922.922,0,0,0-.922.922v.8h-2.57a.922.922,0,0,0-.922.922V6.05a6.535,6.535,0,0,1-3.367-1.208,55.776,55.776,0,0,0-5.538-2.827L54.387,2a7.842,7.842,0,0,0-6.019.095L44.659,3.42,41.532.293a.922.922,0,0,0-1.3,0L29.964,10.558a.914.914,0,0,0,0,1.3L47.5,29.4a1,1,0,0,0,1.3,0l9.371-9.371c.244.021.5.032.759.032a7.371,7.371,0,0,0,5.757-3.453h8.532a.922.922,0,0,0,.922-.922V4.067A.922.922,0,0,0,73.226,3.145Zm-32.346-.9,2.1,2.1a4.019,4.019,0,0,1-4.2,0ZM34.02,13.31l-2.1-2.1,2.1-2.1a4.019,4.019,0,0,1,0,4.2ZM48.156,27.446l-2.1-2.1a4.013,4.013,0,0,1,4.2,0Zm3.428-3.428a5.858,5.858,0,0,0-6.857,0l-9.379-9.379a5.858,5.858,0,0,0,0-6.858l2.1-2.1a5.858,5.858,0,0,0,6.858,0L46.3,7.671a3.653,3.653,0,0,0-2.743,2.01,5.254,5.254,0,1,0,6.041,6.5l3.112,1.056a5.885,5.885,0,0,0,.976,4.672Zm-5.6-9.062.024.009,1.843.626a3.411,3.411,0,1,1-4.63-3.9A4.081,4.081,0,0,0,45.98,14.955Zm9.037,5.629a4.032,4.032,0,0,1-.589-1.917,7.167,7.167,0,0,0,1.626.88Zm8.314-5.263c-.874,1.432-2.568,2.9-4.395,2.9a6.709,6.709,0,0,1-.962-.068h0a5.279,5.279,0,0,1-3.414-1.869c-.019-.028-.1-.132-.111-.15a.918.918,0,0,0-.508-.422L46.61,13.222a2.069,2.069,0,0,1-1.5-2.439v0a1.8,1.8,0,0,1,2.206-1.236l8.258,2.617a.922.922,0,0,0,.557-1.757L49.56,8.321,49.5,8.263l0,0-3.4-3.4,2.923-1.047.032-.012.01,0,.037-.016a5.974,5.974,0,0,1,4.59-.078,53.394,53.394,0,0,1,5.352,2.734A8.3,8.3,0,0,0,63.332,7.9Zm3.492-.554H65.176V6.706h1.648Zm5.481,0H68.668V4.989H72.3Z" transform="translate(-29.691 -0.023)"/>
      </g>
    </g>
  </g>
</svg>
